<?xml version="1.0" encoding="UTF-8"?>
<svg xmlns="http://www.w3.org/2000/svg" viewBox="0 0 711.2 383.6">
      <defs>
        <clipPath id="d">
          <path d="M11.52 162C11.52 81.677 135.31 16.56 288 16.56S564.48 81.676 564.48 162c0 80.322-123.79 145.44-276.48 145.44S11.52 242.323 11.52 162"></path>
        </clipPath>
        <radialGradient
          id="a"
          cx="0"
          cy="0"
          r="1"
          gradientTransform="matrix(363.06 0 0 -363.06 177.52 256.31)"
          gradientUnits="userSpaceOnUse"
        >
          <stop offset="0" stopColor="#aeb2d5"></stop>
          <stop offset="0.3" stopColor="#aeb2d5"></stop>
          <stop offset="0.75" stopColor="#484c89"></stop>
          <stop offset="1" stopColor="#484c89"></stop>
        </radialGradient>
        <clipPath id="c">
          <path d="M0 324h576V0H0v324z"></path>
        </clipPath>
        <clipPath id="b">
          <path d="M0 324h576V0H0v324z"></path>
        </clipPath>
      </defs>
      <g clipPath="url(#d)" transform="matrix(1.25 0 0 -1.25 -4.4 394.3)">
        <path
          fill="url(#a)"
          d="M11.52 162C11.52 81.677 135.31 16.56 288 16.56S564.48 81.676 564.48 162c0 80.322-123.79 145.44-276.48 145.44S11.52 242.323 11.52 162"
        ></path>
      </g>
      <g clipPath="url(#c)" transform="matrix(1.25 0 0 -1.25 -4.4 394.3)">
        <path
          fill="#777bb3"
          d="M0 0c146.73 0 265.68 60.281 265.68 134.64 0 74.359-118.95 134.64-265.68 134.64s-265.68-60.282-265.68-134.64C-265.68 60.28-146.73 0 0 0"
          transform="translate(288 27.359)"
        ></path>
      </g>
      <g clipPath="url(#b)" transform="matrix(1.25 0 0 -1.25 -4.4 394.3)">
        <path
          d="M0 0c12.065 0 21.072 2.225 26.771 6.611 5.638 4.341 9.532 11.862 11.573 22.353 1.903 9.806 1.178 16.653-2.154 20.348C32.783 53.086 25.417 55 14.297 55H-4.984L-15.673 0H0zm-63.063-67.75a2.998 2.998 0 00-2.944 3.572l28.328 145.75a3 3 0 002.945 2.427H26.32c19.188 0 33.47-5.21 42.447-15.487 9.025-10.331 11.812-24.772 8.283-42.921-1.436-7.394-3.906-14.261-7.341-20.409-3.439-6.155-7.984-11.85-13.511-16.93-6.616-6.192-14.104-10.682-22.236-13.324-8.003-2.607-18.281-3.929-30.548-3.929h-24.722l-7.06-36.322a3 3 0 00-2.944-2.428h-31.751z"
          transform="translate(161.73 145.31)"
        ></path>
        <path
          fill="#fff"
          d="M0 0h16.808c13.421 0 18.083-2.945 19.667-4.7 2.628-2.914 3.124-9.058 1.435-17.767-1.898-9.75-5.416-16.663-10.458-20.545C22.29-46.986 13.898-49 2.511-49H-9.523L0 0zm28.831 35h-61.055a6 6 0 01-5.889-4.855l-28.328-145.75a6 6 0 015.889-7.144h31.75a6 6 0 015.89 4.855l6.588 33.895H5.925c12.582 0 23.174 1.372 31.479 4.077 8.541 2.775 16.399 7.48 23.354 13.984 5.752 5.292 10.49 11.232 14.08 17.657 3.591 6.427 6.171 13.594 7.668 21.302 3.715 19.104.697 34.402-8.969 45.466-9.572 10.958-24.614 16.514-44.706 16.514m-45.633-90H2.511c12.801 0 22.336 2.411 28.601 7.234C37.378-42.941 41.604-34.89 43.8-23.608c2.101 10.832 1.144 18.476-2.871 22.929-4.02 4.453-12.059 6.68-24.121 6.68H-4.946l-11.856-61m45.633 84c18.367 0 31.766-4.82 40.188-14.461 8.421-9.641 10.957-23.098 7.597-40.375-1.383-7.117-3.722-13.624-7.015-19.519-3.297-5.899-7.602-11.293-12.922-16.184-6.34-5.933-13.383-10.161-21.133-12.679-7.75-2.525-17.621-3.782-29.621-3.782h-27.196l-7.531-38.75h-31.75l28.328 145.75h61.055"
          transform="translate(159.22 197.31)"
        ></path>
        <path
          d="M0 0c-.896 0-1.745.4-2.314 1.092a2.994 2.994 0 00-.631 2.48L9.586 68.061c1.192 6.133.898 10.535-.827 12.395C7.703 81.593 4.531 83.5-4.848 83.5H-27.55L-43.305 2.428A3 3 0 00-46.25 0h-31.5a2.998 2.998 0 00-2.945 3.572l28.328 145.75a3 3 0 002.945 2.427h31.5a3 3 0 002.945-3.572l-6.836-35.178H2.609c18.605 0 31.221-3.28 38.569-10.028 7.49-6.884 9.827-17.891 6.947-32.719L34.945 2.427A3 3 0 0032-.001H0z"
          transform="translate(311.58 116.31)"
        ></path>
        <path
          fill="#fff"
          d="M0 0h-31.5a6 6 0 01-5.89-4.855l-28.328-145.75a5.998 5.998 0 015.89-7.144h31.5a6 6 0 015.89 4.855l15.283 78.645h20.229c9.363 0 11.328-2 11.407-2.086.568-.611 1.315-3.441.082-9.781l-12.531-64.489a5.998 5.998 0 015.89-7.144h32a6 6 0 015.89 4.855l13.179 67.825c3.093 15.921.447 27.864-7.861 35.5-7.928 7.281-21.208 10.82-40.599 10.82H-.253L5.89-7.144A6.001 6.001 0 010 .001m0-6l-7.531-38.75h28.062c17.657 0 29.836-3.082 36.539-9.238 6.703-6.16 8.711-16.141 6.032-29.938l-13.18-67.824h-32l12.531 64.488c1.426 7.336.902 12.34-1.574 15.008-2.477 2.668-7.746 4.004-15.805 4.004h-25.176l-16.226-83.5h-31.5L-31.5-5.999H0"
          transform="translate(293.66 271.06)"
        ></path>
        <path
          d="M0 0c12.065 0 21.072 2.225 26.771 6.611 5.638 4.34 9.532 11.861 11.574 22.353 1.903 9.806 1.178 16.653-2.155 20.348C32.783 53.086 25.417 55 14.297 55H-4.984L-15.673 0H0zm-63.062-67.75a2.999 2.999 0 00-2.945 3.572l28.328 145.75a3.002 3.002 0 002.946 2.427H26.32c19.189 0 33.47-5.21 42.448-15.487 9.025-10.33 11.811-24.771 8.283-42.921-1.438-7.394-3.907-14.261-7.342-20.409-3.439-6.155-7.984-11.85-13.511-16.93-6.616-6.192-14.104-10.682-22.236-13.324-8.003-2.607-18.281-3.929-30.548-3.929h-24.723l-7.057-36.322a3.001 3.001 0 00-2.946-2.428h-31.75z"
          transform="translate(409.55 145.31)"
        ></path>
        <path
          fill="#fff"
          d="M0 0h16.808c13.421 0 18.083-2.945 19.667-4.7 2.629-2.914 3.125-9.058 1.435-17.766-1.898-9.751-5.417-16.664-10.458-20.546C22.29-46.986 13.898-49 2.511-49H-9.522L0 0zm28.831 35h-61.054a6 6 0 01-5.889-4.855l-28.328-145.75a6 6 0 015.889-7.144h31.75a6 6 0 015.89 4.855l6.587 33.895H5.925c12.582 0 23.174 1.372 31.479 4.077 8.541 2.775 16.401 7.481 23.356 13.986 5.752 5.291 10.488 11.23 14.078 17.655 3.591 6.427 6.171 13.594 7.668 21.302 3.715 19.105.697 34.403-8.969 45.467-9.572 10.957-24.613 16.513-44.706 16.513m-45.632-90H2.511c12.801 0 22.336 2.411 28.601 7.234C37.379-42.941 41.604-34.89 43.8-23.608c2.102 10.832 1.145 18.476-2.871 22.929-4.02 4.453-12.059 6.68-24.121 6.68H-4.946l-11.855-61m45.632 84c18.367 0 31.766-4.82 40.188-14.461s10.957-23.098 7.597-40.375c-1.383-7.117-3.722-13.624-7.015-19.519-3.297-5.899-7.602-11.293-12.922-16.184-6.34-5.933-13.383-10.161-21.133-12.679-7.75-2.525-17.621-3.782-29.621-3.782h-27.196l-7.53-38.75h-31.75l28.328 145.75h61.054"
          transform="translate(407.04 197.31)"
        ></path>
      </g>
    </svg>
